<?xml version="1.0" standalone="no"?>
<svg viewBox="0 0 200 200" xmlns="http://www.w3.org/2000/svg">
  <path fill="#F0C808" d="M45.5,-79.6C59.1,-71,70.4,-59.1,77.3,-45.3C84.1,-31.5,86.5,-15.7,86.3,-0.2C86,15.4,83.1,30.8,76.3,44.8C69.6,58.8,59,71.4,45.7,79.3C32.3,87.3,16.2,90.6,0.4,89.9C-15.4,89.3,-30.9,84.7,-44.4,76.9C-57.9,69.1,-69.5,57.9,-77.4,44.6C-85.3,31.2,-89.4,15.6,-90.2,-0.4C-90.9,-16.5,-88.2,-32.9,-80.1,-45.9C-72,-58.8,-58.4,-68.1,-44.1,-76.4C-29.8,-84.6,-14.9,-91.8,0.5,-92.7C15.9,-93.6,31.9,-88.2,45.5,-79.6Z" transform="translate(100 100)" />
</svg>
