<?xml version="1.0" standalone="no"?>
<svg viewBox="0 0 200 200" xmlns="http://www.w3.org/2000/svg">
  <path fill="#F2F4F8" d="M46.3,-80.2C59.6,-72.5,69.5,-59.2,77.5,-44.9C85.4,-30.6,91.2,-15.3,91.1,-0.1C90.9,15.1,84.7,30.2,76.4,43.8C68.1,57.5,57.6,69.6,44.5,78.4C31.4,87.3,15.7,93,-0.2,93.4C-16.2,93.8,-32.4,88.9,-45.1,79.9C-57.9,70.8,-67.3,57.5,-75.1,43.5C-82.9,29.5,-89.1,14.8,-90.5,-0.8C-91.9,-16.4,-88.6,-32.8,-81,-47.2C-73.5,-61.7,-61.7,-74.1,-47.5,-81.2C-33.3,-88.4,-16.7,-90.2,-0.1,-90.1C16.5,-90,33,-87.9,46.3,-80.2Z" transform="translate(100 100)" />
</svg>
