<?xml version="1.0" standalone="no"?>
<svg viewBox="0 0 200 200" xmlns="http://www.w3.org/2000/svg">
  <path fill="#FFDB57" d="M41.1,-73.5C53.3,-64.2,63.1,-53.2,68.4,-40.6C73.7,-28.1,74.4,-14,76.1,1C77.8,16,80.6,32.1,74.5,43.2C68.4,54.3,53.5,60.6,39.6,68C25.7,75.4,12.9,83.9,-1.6,86.6C-16,89.3,-31.9,86.1,-45.8,78.7C-59.6,71.3,-71.4,59.6,-77.7,45.8C-84,32,-84.8,16,-82.8,1.2C-80.8,-13.7,-75.9,-27.3,-69.6,-41.2C-63.3,-55,-55.7,-69.1,-43.8,-78.7C-32,-88.2,-16,-93.2,-0.8,-91.9C14.5,-90.6,28.9,-82.9,41.1,-73.5Z" transform="translate(100 100)" />
</svg>
